<svg id="visual" viewBox="0 0 900 600" width="900" height="600" xmlns="http://www.w3.org/2000/svg" xmlns:xlink="http://www.w3.org/1999/xlink" version="1.1"><rect x="0" y="0" width="900" height="600" fill="#001122"></rect><defs><linearGradient id="grad1_0" x1="33.3%" y1="100%" x2="100%" y2="0%"><stop offset="20%" stop-color="#001122" stop-opacity="1"></stop><stop offset="80%" stop-color="#001122" stop-opacity="1"></stop></linearGradient></defs><defs><linearGradient id="grad2_0" x1="0%" y1="100%" x2="66.7%" y2="0%"><stop offset="20%" stop-color="#001122" stop-opacity="1"></stop><stop offset="80%" stop-color="#001122" stop-opacity="1"></stop></linearGradient></defs><g transform="translate(900, 600)"><path d="M-486.7 0C-464.8 -61.6 -442.9 -123.1 -410.2 -169.9C-377.5 -216.7 -334.1 -248.7 -298.4 -298.4C-262.7 -348.1 -234.7 -415.4 -186.3 -449.7C-137.8 -484 -68.9 -485.4 0 -486.7L0 0Z" fill="#65bbec"></path></g><g transform="translate(0, 0)"><path d="M486.7 0C449 53.6 411.3 107.2 385.3 159.6C359.2 212 344.8 263.1 315.4 315.4C285.9 367.6 241.3 421 186.3 449.7C131.2 478.4 65.6 482.6 0 486.7L0 0Z" fill="#65bbec"></path></g></svg>