<svg id="visual" viewBox="0 0 900 600" width="900" height="600" xmlns="http://www.w3.org/2000/svg" xmlns:xlink="http://www.w3.org/1999/xlink" version="1.1"><rect x="0" y="0" width="900" height="600" fill="#001122"></rect><path d="M0 458L25 445.7C50 433.3 100 408.7 150 411.7C200 414.7 250 445.3 300 450.8C350 456.3 400 436.7 450 439.2C500 441.7 550 466.3 600 460.5C650 454.7 700 418.3 750 400.5C800 382.7 850 383.3 875 383.7L900 384L900 601L875 601C850 601 800 601 750 601C700 601 650 601 600 601C550 601 500 601 450 601C400 601 350 601 300 601C250 601 200 601 150 601C100 601 50 601 25 601L0 601Z" fill="#0846a2" stroke-linecap="round" stroke-linejoin="miter"></path></svg>